<svg width="232" height="39" viewBox="0 0 232 39" fill="none" xmlns="http://www.w3.org/2000/svg">
<path d="M73.366 31C73.146 31 72.959 30.923 72.805 30.769C72.651 30.615 72.574 30.428 72.574 30.208V8.725C72.574 8.483 72.651 8.285 72.805 8.131C72.959 7.977 73.146 7.9 73.366 7.9H87.688C87.93 7.9 88.128 7.977 88.282 8.131C88.436 8.285 88.513 8.483 88.513 8.725V11.035C88.513 11.277 88.436 11.475 88.282 11.629C88.128 11.761 87.93 11.827 87.688 11.827H77.095V18.097H87.028C87.27 18.097 87.468 18.174 87.622 18.328C87.776 18.482 87.853 18.68 87.853 18.922V21.232C87.853 21.452 87.776 21.639 87.622 21.793C87.468 21.947 87.27 22.024 87.028 22.024H77.095V30.208C77.095 30.428 77.018 30.615 76.864 30.769C76.71 30.923 76.512 31 76.27 31H73.366ZM100.684 31.33C98.9241 31.33 97.4391 31.022 96.2291 30.406C95.0411 29.79 94.1281 28.921 93.4901 27.799C92.8741 26.677 92.5221 25.368 92.4341 23.872C92.4121 23.476 92.4011 22.992 92.4011 22.42C92.4011 21.848 92.4121 21.364 92.4341 20.968C92.5221 19.45 92.8851 18.141 93.5231 17.041C94.1831 15.919 95.1071 15.05 96.2951 14.434C97.5051 13.818 98.9681 13.51 100.684 13.51C102.4 13.51 103.852 13.818 105.04 14.434C106.25 15.05 107.174 15.919 107.812 17.041C108.472 18.141 108.846 19.45 108.934 20.968C108.956 21.364 108.967 21.848 108.967 22.42C108.967 22.992 108.956 23.476 108.934 23.872C108.846 25.368 108.483 26.677 107.845 27.799C107.229 28.921 106.316 29.79 105.106 30.406C103.918 31.022 102.444 31.33 100.684 31.33ZM100.684 28.063C101.85 28.063 102.752 27.7 103.39 26.974C104.028 26.226 104.38 25.137 104.446 23.707C104.468 23.377 104.479 22.948 104.479 22.42C104.479 21.892 104.468 21.463 104.446 21.133C104.38 19.725 104.028 18.647 103.39 17.899C102.752 17.151 101.85 16.777 100.684 16.777C99.5181 16.777 98.6161 17.151 97.9781 17.899C97.3401 18.647 96.9881 19.725 96.9221 21.133C96.9001 21.463 96.8891 21.892 96.8891 22.42C96.8891 22.948 96.9001 23.377 96.9221 23.707C96.9881 25.137 97.3401 26.226 97.9781 26.974C98.6161 27.7 99.5181 28.063 100.684 28.063ZM121.632 31.33C119.872 31.33 118.387 31.022 117.177 30.406C115.989 29.79 115.076 28.921 114.438 27.799C113.822 26.677 113.47 25.368 113.382 23.872C113.36 23.476 113.349 22.992 113.349 22.42C113.349 21.848 113.36 21.364 113.382 20.968C113.47 19.45 113.833 18.141 114.471 17.041C115.131 15.919 116.055 15.05 117.243 14.434C118.453 13.818 119.916 13.51 121.632 13.51C123.348 13.51 124.8 13.818 125.988 14.434C127.198 15.05 128.122 15.919 128.76 17.041C129.42 18.141 129.794 19.45 129.882 20.968C129.904 21.364 129.915 21.848 129.915 22.42C129.915 22.992 129.904 23.476 129.882 23.872C129.794 25.368 129.431 26.677 128.793 27.799C128.177 28.921 127.264 29.79 126.054 30.406C124.866 31.022 123.392 31.33 121.632 31.33ZM121.632 28.063C122.798 28.063 123.7 27.7 124.338 26.974C124.976 26.226 125.328 25.137 125.394 23.707C125.416 23.377 125.427 22.948 125.427 22.42C125.427 21.892 125.416 21.463 125.394 21.133C125.328 19.725 124.976 18.647 124.338 17.899C123.7 17.151 122.798 16.777 121.632 16.777C120.466 16.777 119.564 17.151 118.926 17.899C118.288 18.647 117.936 19.725 117.87 21.133C117.848 21.463 117.837 21.892 117.837 22.42C117.837 22.948 117.848 23.377 117.87 23.707C117.936 25.137 118.288 26.226 118.926 26.974C119.564 27.7 120.466 28.063 121.632 28.063ZM141.36 31.33C140.216 31.33 139.204 31.143 138.324 30.769C137.466 30.373 136.751 29.823 136.179 29.119C135.607 28.415 135.167 27.59 134.859 26.644C134.551 25.676 134.375 24.62 134.331 23.476C134.309 23.08 134.298 22.728 134.298 22.42C134.298 22.09 134.309 21.727 134.331 21.331C134.375 20.231 134.54 19.208 134.826 18.262C135.134 17.316 135.574 16.491 136.146 15.787C136.74 15.061 137.466 14.5 138.324 14.104C139.204 13.708 140.216 13.51 141.36 13.51C142.548 13.51 143.549 13.719 144.363 14.137C145.199 14.533 145.892 15.05 146.442 15.688V8.362C146.442 8.142 146.508 7.955 146.64 7.801C146.794 7.647 146.992 7.57 147.234 7.57H150.039C150.259 7.57 150.446 7.647 150.6 7.801C150.754 7.955 150.831 8.142 150.831 8.362V30.208C150.831 30.428 150.754 30.615 150.6 30.769C150.446 30.923 150.259 31 150.039 31H147.432C147.19 31 146.992 30.923 146.838 30.769C146.706 30.615 146.64 30.428 146.64 30.208V28.987C146.09 29.669 145.386 30.23 144.528 30.67C143.692 31.11 142.636 31.33 141.36 31.33ZM142.581 27.799C143.505 27.799 144.242 27.59 144.792 27.172C145.342 26.754 145.749 26.226 146.013 25.588C146.277 24.928 146.42 24.257 146.442 23.575C146.464 23.179 146.475 22.761 146.475 22.321C146.475 21.859 146.464 21.43 146.442 21.034C146.42 20.374 146.266 19.747 145.98 19.153C145.694 18.537 145.276 18.031 144.726 17.635C144.176 17.239 143.461 17.041 142.581 17.041C141.657 17.041 140.92 17.25 140.37 17.668C139.842 18.064 139.457 18.592 139.215 19.252C138.973 19.912 138.83 20.638 138.786 21.43C138.764 22.09 138.764 22.75 138.786 23.41C138.83 24.202 138.973 24.928 139.215 25.588C139.457 26.248 139.842 26.787 140.37 27.205C140.92 27.601 141.657 27.799 142.581 27.799Z" fill="#363853"/>
<path d="M157.836 31C157.616 31 157.429 30.923 157.275 30.769C157.121 30.615 157.044 30.428 157.044 30.208V8.725C157.044 8.483 157.121 8.285 157.275 8.131C157.429 7.977 157.616 7.9 157.836 7.9H172.158C172.4 7.9 172.598 7.977 172.752 8.131C172.906 8.285 172.983 8.483 172.983 8.725V11.035C172.983 11.277 172.906 11.475 172.752 11.629C172.598 11.761 172.4 11.827 172.158 11.827H161.565V18.097H171.498C171.74 18.097 171.938 18.174 172.092 18.328C172.246 18.482 172.323 18.68 172.323 18.922V21.232C172.323 21.452 172.246 21.639 172.092 21.793C171.938 21.947 171.74 22.024 171.498 22.024H161.565V30.208C161.565 30.428 161.488 30.615 161.334 30.769C161.18 30.923 160.982 31 160.74 31H157.836ZM182.031 31.33C180.887 31.33 179.853 31.11 178.929 30.67C178.005 30.208 177.268 29.603 176.718 28.855C176.19 28.085 175.926 27.227 175.926 26.281C175.926 24.741 176.542 23.52 177.774 22.618C179.028 21.694 180.678 21.078 182.724 20.77L187.245 20.11V19.417C187.245 18.493 187.014 17.778 186.552 17.272C186.09 16.766 185.298 16.513 184.176 16.513C183.384 16.513 182.735 16.678 182.229 17.008C181.745 17.316 181.382 17.734 181.14 18.262C180.964 18.548 180.711 18.691 180.381 18.691H177.774C177.532 18.691 177.345 18.625 177.213 18.493C177.103 18.361 177.048 18.185 177.048 17.965C177.07 17.613 177.213 17.184 177.477 16.678C177.741 16.172 178.159 15.688 178.731 15.226C179.303 14.742 180.04 14.335 180.942 14.005C181.844 13.675 182.933 13.51 184.209 13.51C185.595 13.51 186.761 13.686 187.707 14.038C188.675 14.368 189.445 14.819 190.017 15.391C190.589 15.963 191.007 16.634 191.271 17.404C191.535 18.174 191.667 18.988 191.667 19.846V30.208C191.667 30.428 191.59 30.615 191.436 30.769C191.282 30.923 191.095 31 190.875 31H188.202C187.96 31 187.762 30.923 187.608 30.769C187.476 30.615 187.41 30.428 187.41 30.208V28.921C187.124 29.339 186.739 29.735 186.255 30.109C185.771 30.461 185.177 30.758 184.473 31C183.791 31.22 182.977 31.33 182.031 31.33ZM183.153 28.195C183.923 28.195 184.616 28.03 185.232 27.7C185.87 27.37 186.365 26.864 186.717 26.182C187.091 25.478 187.278 24.598 187.278 23.542V22.849L183.978 23.377C182.68 23.575 181.712 23.894 181.074 24.334C180.436 24.774 180.117 25.313 180.117 25.951C180.117 26.435 180.26 26.853 180.546 27.205C180.854 27.535 181.239 27.788 181.701 27.964C182.163 28.118 182.647 28.195 183.153 28.195ZM203.821 31.33C202.501 31.33 201.368 31.176 200.422 30.868C199.498 30.56 198.739 30.175 198.145 29.713C197.551 29.251 197.111 28.789 196.825 28.327C196.539 27.865 196.385 27.48 196.363 27.172C196.341 26.93 196.407 26.743 196.561 26.611C196.737 26.457 196.924 26.38 197.122 26.38H199.729C199.817 26.38 199.894 26.391 199.96 26.413C200.026 26.435 200.114 26.501 200.224 26.611C200.51 26.853 200.807 27.106 201.115 27.37C201.445 27.634 201.83 27.865 202.27 28.063C202.71 28.239 203.26 28.327 203.92 28.327C204.778 28.327 205.493 28.162 206.065 27.832C206.659 27.48 206.956 26.985 206.956 26.347C206.956 25.885 206.824 25.511 206.56 25.225C206.318 24.939 205.856 24.686 205.174 24.466C204.492 24.224 203.524 23.971 202.27 23.707C201.038 23.421 200.015 23.058 199.201 22.618C198.387 22.178 197.782 21.628 197.386 20.968C196.99 20.308 196.792 19.538 196.792 18.658C196.792 17.8 197.045 16.986 197.551 16.216C198.079 15.424 198.849 14.775 199.861 14.269C200.895 13.763 202.171 13.51 203.689 13.51C204.877 13.51 205.911 13.664 206.791 13.972C207.671 14.258 208.397 14.621 208.969 15.061C209.563 15.501 210.014 15.952 210.322 16.414C210.63 16.854 210.795 17.239 210.817 17.569C210.839 17.811 210.773 18.009 210.619 18.163C210.465 18.295 210.289 18.361 210.091 18.361H207.649C207.539 18.361 207.44 18.339 207.352 18.295C207.264 18.251 207.176 18.196 207.088 18.13C206.846 17.91 206.582 17.679 206.296 17.437C206.01 17.195 205.658 16.986 205.24 16.81C204.844 16.612 204.316 16.513 203.656 16.513C202.82 16.513 202.182 16.7 201.742 17.074C201.302 17.426 201.082 17.877 201.082 18.427C201.082 18.801 201.181 19.131 201.379 19.417C201.599 19.681 202.028 19.934 202.666 20.176C203.304 20.418 204.272 20.671 205.57 20.935C207.044 21.199 208.21 21.595 209.068 22.123C209.948 22.629 210.564 23.223 210.916 23.905C211.29 24.565 211.477 25.302 211.477 26.116C211.477 27.106 211.18 27.997 210.586 28.789C210.014 29.581 209.156 30.208 208.012 30.67C206.89 31.11 205.493 31.33 203.821 31.33ZM223.993 31C222.673 31 221.562 30.769 220.66 30.307C219.758 29.845 219.087 29.163 218.647 28.261C218.207 27.337 217.987 26.193 217.987 24.829V17.338H215.38C215.16 17.338 214.973 17.261 214.819 17.107C214.665 16.953 214.588 16.766 214.588 16.546V14.632C214.588 14.412 214.665 14.225 214.819 14.071C214.973 13.917 215.16 13.84 215.38 13.84H217.987V8.362C217.987 8.142 218.053 7.955 218.185 7.801C218.339 7.647 218.537 7.57 218.779 7.57H221.452C221.672 7.57 221.859 7.647 222.013 7.801C222.167 7.955 222.244 8.142 222.244 8.362V13.84H226.369C226.589 13.84 226.776 13.917 226.93 14.071C227.084 14.225 227.161 14.412 227.161 14.632V16.546C227.161 16.766 227.084 16.953 226.93 17.107C226.776 17.261 226.589 17.338 226.369 17.338H222.244V24.499C222.244 25.401 222.398 26.105 222.706 26.611C223.036 27.117 223.597 27.37 224.389 27.37H226.666C226.886 27.37 227.073 27.447 227.227 27.601C227.381 27.755 227.458 27.942 227.458 28.162V30.208C227.458 30.428 227.381 30.615 227.227 30.769C227.073 30.923 226.886 31 226.666 31H223.993Z" fill="#363853"/>
<path d="M157.836 31C157.616 31 157.429 30.923 157.275 30.769C157.121 30.615 157.044 30.428 157.044 30.208V8.725C157.044 8.483 157.121 8.285 157.275 8.131C157.429 7.977 157.616 7.9 157.836 7.9H172.158C172.4 7.9 172.598 7.977 172.752 8.131C172.906 8.285 172.983 8.483 172.983 8.725V11.035C172.983 11.277 172.906 11.475 172.752 11.629C172.598 11.761 172.4 11.827 172.158 11.827H161.565V18.097H171.498C171.74 18.097 171.938 18.174 172.092 18.328C172.246 18.482 172.323 18.68 172.323 18.922V21.232C172.323 21.452 172.246 21.639 172.092 21.793C171.938 21.947 171.74 22.024 171.498 22.024H161.565V30.208C161.565 30.428 161.488 30.615 161.334 30.769C161.18 30.923 160.982 31 160.74 31H157.836ZM182.031 31.33C180.887 31.33 179.853 31.11 178.929 30.67C178.005 30.208 177.268 29.603 176.718 28.855C176.19 28.085 175.926 27.227 175.926 26.281C175.926 24.741 176.542 23.52 177.774 22.618C179.028 21.694 180.678 21.078 182.724 20.77L187.245 20.11V19.417C187.245 18.493 187.014 17.778 186.552 17.272C186.09 16.766 185.298 16.513 184.176 16.513C183.384 16.513 182.735 16.678 182.229 17.008C181.745 17.316 181.382 17.734 181.14 18.262C180.964 18.548 180.711 18.691 180.381 18.691H177.774C177.532 18.691 177.345 18.625 177.213 18.493C177.103 18.361 177.048 18.185 177.048 17.965C177.07 17.613 177.213 17.184 177.477 16.678C177.741 16.172 178.159 15.688 178.731 15.226C179.303 14.742 180.04 14.335 180.942 14.005C181.844 13.675 182.933 13.51 184.209 13.51C185.595 13.51 186.761 13.686 187.707 14.038C188.675 14.368 189.445 14.819 190.017 15.391C190.589 15.963 191.007 16.634 191.271 17.404C191.535 18.174 191.667 18.988 191.667 19.846V30.208C191.667 30.428 191.59 30.615 191.436 30.769C191.282 30.923 191.095 31 190.875 31H188.202C187.96 31 187.762 30.923 187.608 30.769C187.476 30.615 187.41 30.428 187.41 30.208V28.921C187.124 29.339 186.739 29.735 186.255 30.109C185.771 30.461 185.177 30.758 184.473 31C183.791 31.22 182.977 31.33 182.031 31.33ZM183.153 28.195C183.923 28.195 184.616 28.03 185.232 27.7C185.87 27.37 186.365 26.864 186.717 26.182C187.091 25.478 187.278 24.598 187.278 23.542V22.849L183.978 23.377C182.68 23.575 181.712 23.894 181.074 24.334C180.436 24.774 180.117 25.313 180.117 25.951C180.117 26.435 180.26 26.853 180.546 27.205C180.854 27.535 181.239 27.788 181.701 27.964C182.163 28.118 182.647 28.195 183.153 28.195ZM203.821 31.33C202.501 31.33 201.368 31.176 200.422 30.868C199.498 30.56 198.739 30.175 198.145 29.713C197.551 29.251 197.111 28.789 196.825 28.327C196.539 27.865 196.385 27.48 196.363 27.172C196.341 26.93 196.407 26.743 196.561 26.611C196.737 26.457 196.924 26.38 197.122 26.38H199.729C199.817 26.38 199.894 26.391 199.96 26.413C200.026 26.435 200.114 26.501 200.224 26.611C200.51 26.853 200.807 27.106 201.115 27.37C201.445 27.634 201.83 27.865 202.27 28.063C202.71 28.239 203.26 28.327 203.92 28.327C204.778 28.327 205.493 28.162 206.065 27.832C206.659 27.48 206.956 26.985 206.956 26.347C206.956 25.885 206.824 25.511 206.56 25.225C206.318 24.939 205.856 24.686 205.174 24.466C204.492 24.224 203.524 23.971 202.27 23.707C201.038 23.421 200.015 23.058 199.201 22.618C198.387 22.178 197.782 21.628 197.386 20.968C196.99 20.308 196.792 19.538 196.792 18.658C196.792 17.8 197.045 16.986 197.551 16.216C198.079 15.424 198.849 14.775 199.861 14.269C200.895 13.763 202.171 13.51 203.689 13.51C204.877 13.51 205.911 13.664 206.791 13.972C207.671 14.258 208.397 14.621 208.969 15.061C209.563 15.501 210.014 15.952 210.322 16.414C210.63 16.854 210.795 17.239 210.817 17.569C210.839 17.811 210.773 18.009 210.619 18.163C210.465 18.295 210.289 18.361 210.091 18.361H207.649C207.539 18.361 207.44 18.339 207.352 18.295C207.264 18.251 207.176 18.196 207.088 18.13C206.846 17.91 206.582 17.679 206.296 17.437C206.01 17.195 205.658 16.986 205.24 16.81C204.844 16.612 204.316 16.513 203.656 16.513C202.82 16.513 202.182 16.7 201.742 17.074C201.302 17.426 201.082 17.877 201.082 18.427C201.082 18.801 201.181 19.131 201.379 19.417C201.599 19.681 202.028 19.934 202.666 20.176C203.304 20.418 204.272 20.671 205.57 20.935C207.044 21.199 208.21 21.595 209.068 22.123C209.948 22.629 210.564 23.223 210.916 23.905C211.29 24.565 211.477 25.302 211.477 26.116C211.477 27.106 211.18 27.997 210.586 28.789C210.014 29.581 209.156 30.208 208.012 30.67C206.89 31.11 205.493 31.33 203.821 31.33ZM223.993 31C222.673 31 221.562 30.769 220.66 30.307C219.758 29.845 219.087 29.163 218.647 28.261C218.207 27.337 217.987 26.193 217.987 24.829V17.338H215.38C215.16 17.338 214.973 17.261 214.819 17.107C214.665 16.953 214.588 16.766 214.588 16.546V14.632C214.588 14.412 214.665 14.225 214.819 14.071C214.973 13.917 215.16 13.84 215.38 13.84H217.987V8.362C217.987 8.142 218.053 7.955 218.185 7.801C218.339 7.647 218.537 7.57 218.779 7.57H221.452C221.672 7.57 221.859 7.647 222.013 7.801C222.167 7.955 222.244 8.142 222.244 8.362V13.84H226.369C226.589 13.84 226.776 13.917 226.93 14.071C227.084 14.225 227.161 14.412 227.161 14.632V16.546C227.161 16.766 227.084 16.953 226.93 17.107C226.776 17.261 226.589 17.338 226.369 17.338H222.244V24.499C222.244 25.401 222.398 26.105 222.706 26.611C223.036 27.117 223.597 27.37 224.389 27.37H226.666C226.886 27.37 227.073 27.447 227.227 27.601C227.381 27.755 227.458 27.942 227.458 28.162V30.208C227.458 30.428 227.381 30.615 227.227 30.769C227.073 30.923 226.886 31 226.666 31H223.993Z" fill="#8ACB88"/>
<rect x="25" y="8" width="40" height="2" fill="#8ACB88"/>
<rect x="15" y="18" width="50" height="2" fill="#8ACB88"/>
<rect x="5" y="28" width="60" height="2" fill="#8ACB88"/>
</svg>
